<svg xmlns="http://www.w3.org/2000/svg" viewBox="0 0 140 140"><defs><radialGradient id="bg"><stop stop-color="#375945"/><stop offset="1" stop-color="#102a25"/></radialGradient><linearGradient id="jade" x2="1" y2="1"><stop stop-color="#b1dfb6"/><stop offset=".45" stop-color="#468d74"/><stop offset="1" stop-color="#183d35"/></linearGradient><linearGradient id="gold" x2="1" y2="1"><stop stop-color="#f3df9f"/><stop offset="1" stop-color="#987440"/></linearGradient><linearGradient id="metal" x2="1" y2="1"><stop stop-color="#f0f4db"/><stop offset=".5" stop-color="#a6c5b2"/><stop offset="1" stop-color="#3f6f66"/></linearGradient><filter id="shadow"><feDropShadow dx="0" dy="4" stdDeviation="5" flood-opacity=".6"/></filter></defs><rect width="140" height="140" rx="18" fill="url(#bg)"/><circle cx="70" cy="70" r="51" fill="none" stroke="#c6b47c" stroke-opacity=".16"/><g filter="url(#shadow)"><path d="M51 40V25h29v15c0 9 24 18 24 47 0 22-15 34-38 34S28 109 28 87c0-27 23-39 23-47Z" fill="url(#jade)" stroke="#b3dbb4" stroke-width="2"/><path d="M49 22h33v15H49Z" fill="url(#gold)"/><path d="M34 77q30 13 64 0v22q-34 12-64 0Z" fill="#142f2a" stroke="#e4c276"/><path d="m65 78 9 10-9 10-9-10Z" fill="url(#gold)"/><path d="M43 60q-9 11-7 21" fill="none" stroke="#c7f8d4" stroke-width="3"/></g><g fill="#f6d685"><circle cx="22" cy="33" r="1.3"/><circle cx="111" cy="23" r="1.2"/><circle cx="117" cy="109" r="1.5"/></g></svg>