<svg xmlns="http://www.w3.org/2000/svg" viewBox="0 0 140 140"><defs><radialGradient id="bg"><stop stop-color="#375945"/><stop offset="1" stop-color="#102a25"/></radialGradient><linearGradient id="jade" x2="1" y2="1"><stop stop-color="#b1dfb6"/><stop offset=".45" stop-color="#468d74"/><stop offset="1" stop-color="#183d35"/></linearGradient><linearGradient id="gold" x2="1" y2="1"><stop stop-color="#f3df9f"/><stop offset="1" stop-color="#987440"/></linearGradient><linearGradient id="metal" x2="1" y2="1"><stop stop-color="#f0f4db"/><stop offset=".5" stop-color="#a6c5b2"/><stop offset="1" stop-color="#3f6f66"/></linearGradient><filter id="shadow"><feDropShadow dx="0" dy="4" stdDeviation="5" flood-opacity=".6"/></filter></defs><rect width="140" height="140" rx="18" fill="url(#bg)"/><circle cx="70" cy="70" r="51" fill="none" stroke="#c6b47c" stroke-opacity=".16"/><g filter="url(#shadow)"><path d="m27 36 66-13 15 87-68 12Z" fill="url(#jade)" stroke="#bea876" stroke-width="2"/><path d="m39 38 55-11m-52 25 52-11m-49 25 52-11m-49 25 52-11m-49 25 52-11" stroke="#7eb098" stroke-width="2"/><path d="m57 43 6 49m11-53 6 49" stroke="#e0ce93" stroke-width="3"/><path d="m38 113 61-13" stroke="#e0ce93" stroke-width="4"/></g><g fill="#f6d685"><circle cx="22" cy="33" r="1.3"/><circle cx="111" cy="23" r="1.2"/><circle cx="117" cy="109" r="1.5"/></g></svg>